<mxfile host="app.diagrams.net" agent="Mozilla/5.0 (Windows NT 10.0; Win64; x64) AppleWebKit/537.36 (KHTML, like Gecko) Chrome/137.0.0.0 Safari/537.36" version="27.1.6">
  <diagram name="Página-1" id="_pBhAU1H5xWY1ATLEpE2">
    <mxGraphModel dx="1933" dy="611" grid="1" gridSize="10" guides="1" tooltips="1" connect="1" arrows="1" fold="1" page="1" pageScale="1" pageWidth="827" pageHeight="1169" math="0" shadow="0">
      <root>
        <mxCell id="0" />
        <mxCell id="1" parent="0" />
        <mxCell id="4moywfV-kU5STPwCgtIo-18" style="rounded=0;orthogonalLoop=1;jettySize=auto;html=1;entryX=0;entryY=0.5;entryDx=0;entryDy=0;" parent="1" source="4moywfV-kU5STPwCgtIo-1" target="4moywfV-kU5STPwCgtIo-3" edge="1">
          <mxGeometry relative="1" as="geometry" />
        </mxCell>
        <mxCell id="4moywfV-kU5STPwCgtIo-19" style="rounded=0;orthogonalLoop=1;jettySize=auto;html=1;entryX=0;entryY=0.5;entryDx=0;entryDy=0;" parent="1" source="4moywfV-kU5STPwCgtIo-1" target="4moywfV-kU5STPwCgtIo-4" edge="1">
          <mxGeometry relative="1" as="geometry" />
        </mxCell>
        <mxCell id="4moywfV-kU5STPwCgtIo-20" style="rounded=0;orthogonalLoop=1;jettySize=auto;html=1;entryX=0;entryY=0.5;entryDx=0;entryDy=0;" parent="1" source="4moywfV-kU5STPwCgtIo-1" target="4moywfV-kU5STPwCgtIo-5" edge="1">
          <mxGeometry relative="1" as="geometry" />
        </mxCell>
        <mxCell id="4moywfV-kU5STPwCgtIo-22" value="" style="rounded=0;orthogonalLoop=1;jettySize=auto;html=1;" parent="1" target="4moywfV-kU5STPwCgtIo-6" edge="1">
          <mxGeometry relative="1" as="geometry">
            <mxPoint x="245" y="340" as="sourcePoint" />
          </mxGeometry>
        </mxCell>
        <mxCell id="oCv998W_JMqjDXVk1AhT-4" style="rounded=0;orthogonalLoop=1;jettySize=auto;html=1;entryX=0.5;entryY=1;entryDx=0;entryDy=0;" parent="1" source="4moywfV-kU5STPwCgtIo-1" target="4moywfV-kU5STPwCgtIo-9" edge="1">
          <mxGeometry relative="1" as="geometry" />
        </mxCell>
        <mxCell id="oCv998W_JMqjDXVk1AhT-6" style="rounded=0;orthogonalLoop=1;jettySize=auto;html=1;entryX=1;entryY=0.5;entryDx=0;entryDy=0;" parent="1" source="4moywfV-kU5STPwCgtIo-1" target="oCv998W_JMqjDXVk1AhT-1" edge="1">
          <mxGeometry relative="1" as="geometry" />
        </mxCell>
        <mxCell id="oCv998W_JMqjDXVk1AhT-7" style="rounded=0;orthogonalLoop=1;jettySize=auto;html=1;entryX=1;entryY=0.5;entryDx=0;entryDy=0;" parent="1" source="4moywfV-kU5STPwCgtIo-1" target="4moywfV-kU5STPwCgtIo-28" edge="1">
          <mxGeometry relative="1" as="geometry" />
        </mxCell>
        <mxCell id="WDEe-NjsPmFSdlKp4_de-2" value="" style="rounded=0;orthogonalLoop=1;jettySize=auto;html=1;" parent="1" source="4moywfV-kU5STPwCgtIo-1" target="WDEe-NjsPmFSdlKp4_de-1" edge="1">
          <mxGeometry relative="1" as="geometry" />
        </mxCell>
        <mxCell id="4moywfV-kU5STPwCgtIo-1" value="Administrador" style="shape=umlActor;verticalLabelPosition=bottom;verticalAlign=top;html=1;outlineConnect=0;" parent="1" vertex="1">
          <mxGeometry x="230" y="257" width="30" height="60" as="geometry" />
        </mxCell>
        <mxCell id="4moywfV-kU5STPwCgtIo-3" value="&lt;strong data-end=&quot;168&quot; data-start=&quot;147&quot;&gt;Cadastrar Usuário&lt;/strong&gt;" style="ellipse;whiteSpace=wrap;html=1;" parent="1" vertex="1">
          <mxGeometry x="390" y="177" width="140" height="60" as="geometry" />
        </mxCell>
        <mxCell id="4moywfV-kU5STPwCgtIo-4" value="Fazer Login" style="ellipse;whiteSpace=wrap;html=1;" parent="1" vertex="1">
          <mxGeometry x="390" y="257" width="140" height="60" as="geometry" />
        </mxCell>
        <mxCell id="4moywfV-kU5STPwCgtIo-5" value="&lt;strong data-end=&quot;385&quot; data-start=&quot;368&quot;&gt;Editar Perfil&lt;/strong&gt;" style="ellipse;whiteSpace=wrap;html=1;" parent="1" vertex="1">
          <mxGeometry x="390" y="337" width="140" height="60" as="geometry" />
        </mxCell>
        <mxCell id="4moywfV-kU5STPwCgtIo-6" value="&lt;strong data-end=&quot;483&quot; data-start=&quot;469&quot;&gt;Criar Post&lt;/strong&gt;" style="ellipse;whiteSpace=wrap;html=1;" parent="1" vertex="1">
          <mxGeometry x="175" y="460" width="140" height="70" as="geometry" />
        </mxCell>
        <mxCell id="4moywfV-kU5STPwCgtIo-9" value="&lt;strong data-end=&quot;745&quot; data-start=&quot;728&quot;&gt;Comentar Post&lt;/strong&gt;" style="ellipse;whiteSpace=wrap;html=1;" parent="1" vertex="1">
          <mxGeometry x="175" y="50" width="140" height="70" as="geometry" />
        </mxCell>
        <mxCell id="4moywfV-kU5STPwCgtIo-27" value="CASO DE USO - Administrador" style="shape=umlFrame;whiteSpace=wrap;html=1;pointerEvents=0;width=200;height=30;" parent="1" vertex="1">
          <mxGeometry x="-70" y="10" width="620" height="560" as="geometry" />
        </mxCell>
        <mxCell id="4moywfV-kU5STPwCgtIo-28" value="&lt;b&gt;Visualizar Posts&lt;/b&gt;" style="ellipse;whiteSpace=wrap;html=1;" parent="1" vertex="1">
          <mxGeometry x="-40" y="168" width="140" height="60" as="geometry" />
        </mxCell>
        <mxCell id="oCv998W_JMqjDXVk1AhT-10" value="" style="rounded=0;orthogonalLoop=1;jettySize=auto;html=1;dashed=1;" parent="1" source="oCv998W_JMqjDXVk1AhT-1" target="oCv998W_JMqjDXVk1AhT-9" edge="1">
          <mxGeometry relative="1" as="geometry" />
        </mxCell>
        <mxCell id="oCv998W_JMqjDXVk1AhT-1" value="&lt;b&gt;Excluir Posts&lt;/b&gt;" style="ellipse;whiteSpace=wrap;html=1;" parent="1" vertex="1">
          <mxGeometry x="-40" y="340" width="140" height="60" as="geometry" />
        </mxCell>
        <mxCell id="oCv998W_JMqjDXVk1AhT-9" value="&lt;b&gt;Excluir Comentarios&lt;/b&gt;" style="ellipse;whiteSpace=wrap;html=1;" parent="1" vertex="1">
          <mxGeometry x="-40" y="440" width="140" height="60" as="geometry" />
        </mxCell>
        <mxCell id="oCv998W_JMqjDXVk1AhT-11" value="&amp;lt;extends&amp;gt;" style="text;html=1;align=center;verticalAlign=middle;resizable=0;points=[];autosize=1;strokeColor=none;fillColor=none;" parent="1" vertex="1">
          <mxGeometry x="35" y="404" width="80" height="30" as="geometry" />
        </mxCell>
        <mxCell id="WDEe-NjsPmFSdlKp4_de-1" value="Visualizar Métricas de Conta" style="ellipse;whiteSpace=wrap;html=1;" parent="1" vertex="1">
          <mxGeometry x="-40" y="257" width="140" height="60" as="geometry" />
        </mxCell>
      </root>
    </mxGraphModel>
  </diagram>
</mxfile>
